<svg width="142" height="181" viewBox="0 0 142 181" fill="none" xmlns="http://www.w3.org/2000/svg">
<path d="M1.50696 53.8719C-0.220619 55.2488 -0.504927 57.7655 0.871941 59.493C2.24881 61.2206 4.76546 61.5049 6.49304 60.1281L1.50696 53.8719ZM70.5 4L72.9703 0.853918C71.5117 -0.291338 69.4572 -0.283878 68.007 0.871941L70.5 4ZM138.478 60.9714C140.671 60.7074 142.235 58.7154 141.971 56.5221L137.67 20.78C137.407 18.5866 135.415 17.0226 133.221 17.2865C131.028 17.5504 129.464 19.5424 129.728 21.7357L133.551 53.5065L101.78 57.3296C99.5866 57.5935 98.0226 59.5855 98.2865 61.7788C98.5504 63.9721 100.542 65.5362 102.736 65.2723L138.478 60.9714ZM6.49304 60.1281L72.993 7.12806L68.007 0.871941L1.50696 53.8719L6.49304 60.1281ZM68.0297 7.14608L135.53 60.1461L140.47 53.8539L72.9703 0.853918L68.0297 7.14608Z" fill="#757DE8"/>
<path d="M140.493 127.128C142.221 125.751 142.505 123.235 141.128 121.507C139.751 119.779 137.235 119.495 135.507 120.872L140.493 127.128ZM71.5 177L69.0297 180.146C70.4883 181.291 72.5428 181.284 73.993 180.128L71.5 177ZM3.52212 120.029C1.3288 120.293 -0.235277 122.285 0.0286488 124.478L4.32957 160.22C4.5935 162.413 6.58549 163.977 8.7788 163.714C10.9721 163.45 12.5362 161.458 12.2723 159.264L8.44923 127.493L40.22 123.67C42.4134 123.407 43.9774 121.415 43.7135 119.221C43.4496 117.028 41.4576 115.464 39.2643 115.728L3.52212 120.029ZM135.507 120.872L69.007 173.872L73.993 180.128L140.493 127.128L135.507 120.872ZM73.9703 173.854L6.47026 120.854L1.52974 127.146L69.0297 180.146L73.9703 173.854Z" fill="#757DE8"/>
<path d="M30.4 98C30.1067 98 29.8667 97.9067 29.68 97.72C29.4933 97.52 29.4 97.2733 29.4 96.98V88.5C29.4 88.2067 29.4933 87.9667 29.68 87.78C29.8667 87.58 30.1067 87.48 30.4 87.48C30.68 87.48 30.9133 87.58 31.1 87.78C31.3 87.9667 31.4 88.2067 31.4 88.5V90.74L31.2 89.88C31.3067 89.5067 31.4667 89.16 31.68 88.84C31.9067 88.52 32.1733 88.24 32.48 88C32.7867 87.76 33.1267 87.5733 33.5 87.44C33.8867 87.3067 34.2867 87.24 34.7 87.24C35.0467 87.24 35.3467 87.3333 35.6 87.52C35.8533 87.7067 35.98 87.94 35.98 88.22C35.98 88.58 35.8867 88.8467 35.7 89.02C35.5133 89.18 35.3067 89.26 35.08 89.26C34.88 89.26 34.6867 89.22 34.5 89.14C34.3133 89.0467 34.0933 89 33.84 89C33.56 89 33.2733 89.0733 32.98 89.22C32.6867 89.3667 32.42 89.5867 32.18 89.88C31.94 90.16 31.7467 90.4933 31.6 90.88C31.4667 91.2667 31.4 91.7 31.4 92.18V96.98C31.4 97.2733 31.3 97.52 31.1 97.72C30.9133 97.9067 30.68 98 30.4 98ZM42.2102 98.2C41.1035 98.2 40.1435 97.9733 39.3302 97.52C38.5168 97.0533 37.8835 96.42 37.4302 95.62C36.9902 94.8067 36.7702 93.88 36.7702 92.84C36.7702 91.6667 37.0035 90.6667 37.4702 89.84C37.9502 89 38.5702 88.36 39.3302 87.92C40.0902 87.4667 40.8968 87.24 41.7502 87.24C42.4035 87.24 43.0235 87.3733 43.6102 87.64C44.1968 87.8933 44.7168 88.2533 45.1702 88.72C45.6368 89.1733 46.0035 89.7133 46.2702 90.34C46.5368 90.9533 46.6768 91.6267 46.6902 92.36C46.6768 92.6267 46.5702 92.8467 46.3702 93.02C46.1702 93.1933 45.9368 93.28 45.6702 93.28H37.8902L37.4102 91.58H44.9302L44.5502 91.94V91.44C44.5235 90.9733 44.3702 90.5667 44.0902 90.22C43.8102 89.86 43.4635 89.5867 43.0502 89.4C42.6368 89.2 42.2035 89.1 41.7502 89.1C41.3502 89.1 40.9635 89.1667 40.5902 89.3C40.2302 89.42 39.9035 89.62 39.6102 89.9C39.3302 90.18 39.1035 90.5533 38.9302 91.02C38.7702 91.4733 38.6902 92.04 38.6902 92.72C38.6902 93.4533 38.8435 94.0933 39.1502 94.64C39.4568 95.1867 39.8702 95.6133 40.3902 95.92C40.9102 96.2133 41.4835 96.36 42.1102 96.36C42.6035 96.36 43.0102 96.3133 43.3302 96.22C43.6502 96.1133 43.9168 95.9867 44.1302 95.84C44.3435 95.6933 44.5302 95.5533 44.6902 95.42C44.8902 95.3 45.0902 95.24 45.2902 95.24C45.5302 95.24 45.7302 95.3267 45.8902 95.5C46.0502 95.66 46.1302 95.8533 46.1302 96.08C46.1302 96.3733 45.9835 96.64 45.6902 96.88C45.3302 97.2267 44.8302 97.5333 44.1902 97.8C43.5635 98.0667 42.9035 98.2 42.2102 98.2ZM57.5708 87.44C57.8641 87.44 58.1041 87.54 58.2908 87.74C58.4774 87.9267 58.5708 88.1667 58.5708 88.46V100.98C58.5708 101.273 58.4774 101.513 58.2908 101.7C58.1041 101.9 57.8641 102 57.5708 102C57.2908 102 57.0508 101.9 56.8508 101.7C56.6641 101.513 56.5708 101.273 56.5708 100.98V95.54L56.9908 95.56C56.9908 95.8 56.8908 96.0733 56.6908 96.38C56.5041 96.6733 56.2441 96.96 55.9108 97.24C55.5774 97.52 55.1841 97.7533 54.7308 97.94C54.2774 98.1133 53.7908 98.2 53.2708 98.2C52.3508 98.2 51.5241 97.9667 50.7908 97.5C50.0574 97.02 49.4774 96.3733 49.0508 95.56C48.6241 94.7333 48.4108 93.7867 48.4108 92.72C48.4108 91.6533 48.6241 90.7133 49.0508 89.9C49.4774 89.0733 50.0508 88.4267 50.7708 87.96C51.5041 87.48 52.3174 87.24 53.2108 87.24C53.7708 87.24 54.2908 87.3333 54.7708 87.52C55.2641 87.7067 55.6908 87.9467 56.0508 88.24C56.4108 88.5333 56.6908 88.8467 56.8908 89.18C57.0908 89.5 57.1908 89.8067 57.1908 90.1L56.5708 90.16V88.46C56.5708 88.18 56.6641 87.94 56.8508 87.74C57.0508 87.54 57.2908 87.44 57.5708 87.44ZM53.4908 96.36C54.1308 96.36 54.6841 96.2 55.1508 95.88C55.6308 95.56 56.0041 95.1267 56.2708 94.58C56.5374 94.0333 56.6708 93.4133 56.6708 92.72C56.6708 92.0267 56.5374 91.4067 56.2708 90.86C56.0041 90.3133 55.6308 89.88 55.1508 89.56C54.6708 89.24 54.1174 89.08 53.4908 89.08C52.8774 89.08 52.3308 89.24 51.8508 89.56C51.3841 89.88 51.0108 90.3133 50.7308 90.86C50.4641 91.4067 50.3308 92.0267 50.3308 92.72C50.3308 93.4133 50.4641 94.0333 50.7308 94.58C51.0108 95.1267 51.3841 95.56 51.8508 95.88C52.3308 96.2 52.8774 96.36 53.4908 96.36ZM62.0327 92.82C61.7527 92.82 61.5127 92.7267 61.3127 92.54C61.126 92.34 61.0327 92.1 61.0327 91.82C61.0327 91.5267 61.126 91.2933 61.3127 91.12C61.5127 90.9333 61.7527 90.84 62.0327 90.84H65.7927C66.0727 90.84 66.3127 90.94 66.5127 91.14C66.7127 91.3267 66.8127 91.5667 66.8127 91.86C66.8127 92.1267 66.7127 92.3533 66.5127 92.54C66.3127 92.7267 66.0727 92.82 65.7927 92.82H62.0327ZM74.1438 83.22C74.3971 83.22 74.6571 83.2533 74.9238 83.32C75.1904 83.3867 75.4104 83.5 75.5838 83.66C75.7704 83.8067 75.8638 84.0133 75.8638 84.28C75.8638 84.5467 75.7838 84.7667 75.6238 84.94C75.4638 85.1 75.2771 85.18 75.0638 85.18C74.9304 85.18 74.7504 85.1533 74.5238 85.1C74.2971 85.0333 74.0704 85 73.8438 85C73.5371 85 73.2904 85.0733 73.1038 85.22C72.9171 85.3533 72.7838 85.5267 72.7038 85.74C72.6238 85.94 72.5838 86.14 72.5838 86.34V96.98C72.5838 97.2733 72.4838 97.52 72.2838 97.72C72.0971 97.9067 71.8638 98 71.5838 98C71.2904 98 71.0504 97.9067 70.8638 97.72C70.6771 97.52 70.5838 97.2733 70.5838 96.98V86.36C70.5838 85.44 70.8838 84.6867 71.4838 84.1C72.0971 83.5133 72.9838 83.22 74.1438 83.22ZM74.5438 87.66C74.8104 87.66 75.0304 87.7467 75.2038 87.92C75.3771 88.0933 75.4638 88.3133 75.4638 88.58C75.4638 88.8467 75.3771 89.0667 75.2038 89.24C75.0304 89.4133 74.8104 89.5 74.5438 89.5H69.3638C69.1104 89.5 68.8904 89.4133 68.7038 89.24C68.5304 89.0667 68.4438 88.8467 68.4438 88.58C68.4438 88.3133 68.5304 88.0933 68.7038 87.92C68.8904 87.7467 69.1104 87.66 69.3638 87.66H74.5438ZM86.9019 92.74C86.9019 93.8067 86.6685 94.7533 86.2019 95.58C85.7352 96.3933 85.1019 97.0333 84.3019 97.5C83.5019 97.9667 82.6019 98.2 81.6019 98.2C80.6019 98.2 79.7019 97.9667 78.9019 97.5C78.1019 97.0333 77.4619 96.3933 76.9819 95.58C76.5152 94.7533 76.2819 93.8067 76.2819 92.74C76.2819 91.66 76.5152 90.7133 76.9819 89.9C77.4619 89.0733 78.1019 88.4267 78.9019 87.96C79.7019 87.48 80.6019 87.24 81.6019 87.24C82.6019 87.24 83.5019 87.48 84.3019 87.96C85.1019 88.4267 85.7352 89.0733 86.2019 89.9C86.6685 90.7133 86.9019 91.66 86.9019 92.74ZM84.9019 92.74C84.9019 92.0067 84.7552 91.3733 84.4619 90.84C84.1685 90.2933 83.7685 89.8667 83.2619 89.56C82.7685 89.24 82.2152 89.08 81.6019 89.08C80.9885 89.08 80.4285 89.24 79.9219 89.56C79.4152 89.8667 79.0152 90.2933 78.7219 90.84C78.4285 91.3733 78.2819 92.0067 78.2819 92.74C78.2819 93.4467 78.4285 94.0733 78.7219 94.62C79.0152 95.1667 79.4152 95.5933 79.9219 95.9C80.4285 96.2067 80.9885 96.36 81.6019 96.36C82.2152 96.36 82.7685 96.2067 83.2619 95.9C83.7685 95.5933 84.1685 95.1667 84.4619 94.62C84.7552 94.0733 84.9019 93.4467 84.9019 92.74ZM90.1656 98C89.8723 98 89.6323 97.9067 89.4456 97.72C89.259 97.52 89.1656 97.2733 89.1656 96.98V88.5C89.1656 88.2067 89.259 87.9667 89.4456 87.78C89.6323 87.58 89.8723 87.48 90.1656 87.48C90.4456 87.48 90.679 87.58 90.8656 87.78C91.0656 87.9667 91.1656 88.2067 91.1656 88.5V90.74L90.9656 89.88C91.0723 89.5067 91.2323 89.16 91.4456 88.84C91.6723 88.52 91.939 88.24 92.2456 88C92.5523 87.76 92.8923 87.5733 93.2656 87.44C93.6523 87.3067 94.0523 87.24 94.4656 87.24C94.8123 87.24 95.1123 87.3333 95.3656 87.52C95.619 87.7067 95.7456 87.94 95.7456 88.22C95.7456 88.58 95.6523 88.8467 95.4656 89.02C95.279 89.18 95.0723 89.26 94.8456 89.26C94.6456 89.26 94.4523 89.22 94.2656 89.14C94.079 89.0467 93.859 89 93.6056 89C93.3256 89 93.039 89.0733 92.7456 89.22C92.4523 89.3667 92.1856 89.5867 91.9456 89.88C91.7056 90.16 91.5123 90.4933 91.3656 90.88C91.2323 91.2667 91.1656 91.7 91.1656 92.18V96.98C91.1656 97.2733 91.0656 97.52 90.8656 97.72C90.679 97.9067 90.4456 98 90.1656 98ZM102.805 87.3C103.792 87.3 104.552 87.5467 105.085 88.04C105.618 88.52 105.972 89.1733 106.145 90L105.825 89.9L105.965 89.58C106.138 89.2333 106.398 88.8867 106.745 88.54C107.105 88.18 107.532 87.8867 108.025 87.66C108.518 87.42 109.045 87.3 109.605 87.3C110.525 87.3 111.238 87.5 111.745 87.9C112.252 88.2867 112.605 88.8133 112.805 89.48C113.005 90.1333 113.105 90.8667 113.105 91.68V96.98C113.105 97.2733 113.012 97.52 112.825 97.72C112.638 97.9067 112.398 98 112.105 98C111.825 98 111.585 97.9067 111.385 97.72C111.198 97.52 111.105 97.2733 111.105 96.98V91.7C111.105 91.2333 111.038 90.8067 110.905 90.42C110.785 90.0333 110.565 89.7267 110.245 89.5C109.938 89.26 109.512 89.14 108.965 89.14C108.445 89.14 107.978 89.26 107.565 89.5C107.165 89.7267 106.852 90.0333 106.625 90.42C106.398 90.8067 106.285 91.2333 106.285 91.7V96.98C106.285 97.2733 106.192 97.52 106.005 97.72C105.818 97.9067 105.578 98 105.285 98C104.992 98 104.752 97.9067 104.565 97.72C104.378 97.52 104.285 97.2733 104.285 96.98V91.68C104.285 91.2133 104.218 90.7867 104.085 90.4C103.965 90.0133 103.752 89.7067 103.445 89.48C103.138 89.2533 102.712 89.14 102.165 89.14C101.645 89.14 101.185 89.2533 100.785 89.48C100.385 89.7067 100.072 90.0133 99.845 90.4C99.6317 90.7867 99.525 91.2133 99.525 91.68V96.98C99.525 97.2733 99.425 97.52 99.225 97.72C99.0383 97.9067 98.805 98 98.525 98C98.2317 98 97.9917 97.9067 97.805 97.72C97.6183 97.52 97.525 97.2733 97.525 96.98V88.5C97.525 88.2067 97.6183 87.9667 97.805 87.78C97.9917 87.58 98.2317 87.48 98.525 87.48C98.805 87.48 99.0383 87.58 99.225 87.78C99.425 87.9667 99.525 88.2067 99.525 88.5V89.68L99.145 89.9C99.2383 89.6067 99.3917 89.3067 99.605 89C99.8183 88.6933 100.085 88.4133 100.405 88.16C100.738 87.9067 101.105 87.7 101.505 87.54C101.905 87.38 102.338 87.3 102.805 87.3Z" fill="#757DE8"/>
</svg>
